<?xml version="1.0" encoding="UTF-8" standalone="no"?>
<!-- Generator: Adobe Illustrator 19.1.0, SVG Export Plug-In . SVG Version: 6.00 Build 0)  -->

<svg
   xmlns:dc="http://purl.org/dc/elements/1.1/"
   xmlns:cc="http://creativecommons.org/ns#"
   xmlns:rdf="http://www.w3.org/1999/02/22-rdf-syntax-ns#"
   xmlns:svg="http://www.w3.org/2000/svg"
   xmlns="http://www.w3.org/2000/svg"
   xmlns:xlink="http://www.w3.org/1999/xlink"
   xmlns:sodipodi="http://sodipodi.sourceforge.net/DTD/sodipodi-0.dtd"
   xmlns:inkscape="http://www.inkscape.org/namespaces/inkscape"
   version="1.1"
   id="InfluxData_Complete_Logo"
   x="0px"
   y="0px"
   viewBox="-18 251 1399.8896 618.55591"
   xml:space="preserve"
   sodipodi:docname="influxdb_logo.svg"
   inkscape:version="0.92.2 (5c3e80d, 2017-08-06)"
   width="1399.8896"
   height="618.55591"
   inkscape:export-filename="/home/moritz/Dokumente/veleda.io/jekyll/app/images/influxdb_logo.png"
   inkscape:export-xdpi="89"
   inkscape:export-ydpi="89"><metadata
     id="metadata40"><rdf:RDF><cc:Work
         rdf:about=""><dc:format>image/svg+xml</dc:format><dc:type
           rdf:resource="http://purl.org/dc/dcmitype/StillImage" /><dc:title></dc:title></cc:Work></rdf:RDF></metadata><defs
     id="defs38"><radialGradient
       inkscape:collect="always"
       xlink:href="#linearGradient4574"
       id="radialGradient4576"
       cx="775.28387"
       cy="875.98688"
       fx="775.28387"
       fy="875.98688"
       r="1000"
       gradientTransform="matrix(0.69994483,0,0,0.69148998,-18.000026,23.748921)"
       gradientUnits="userSpaceOnUse" /><linearGradient
       inkscape:collect="always"
       id="linearGradient4574"><stop
         style="stop-color:#ffffff;stop-opacity:1;"
         offset="0"
         id="stop4570" /><stop
         style="stop-color:#e4e4e4;stop-opacity:1"
         offset="1"
         id="stop4572" /></linearGradient></defs><sodipodi:namedview
     pagecolor="#ffffff"
     bordercolor="#666666"
     borderopacity="1"
     objecttolerance="10"
     gridtolerance="10"
     guidetolerance="10"
     inkscape:pageopacity="0"
     inkscape:pageshadow="2"
     inkscape:window-width="1853"
     inkscape:window-height="1025"
     id="namedview36"
     showgrid="false"
     inkscape:zoom="0.56068376"
     inkscape:cx="831.92651"
     inkscape:cy="97.747467"
     inkscape:window-x="67"
     inkscape:window-y="27"
     inkscape:window-maximized="1"
     inkscape:current-layer="InfluxData_Complete_Logo"
     fit-margin-top="0"
     fit-margin-left="0"
     fit-margin-right="0"
     fit-margin-bottom="0" /><style
     type="text/css"
     id="style2">
	.st0{fill:#292933;}
</style><rect
     style="fill:url(#radialGradient4576);fill-opacity:1;fill-rule:nonzero;stroke:none;stroke-width:29.59597397;stroke-miterlimit:4;stroke-dasharray:none;stroke-dashoffset:0;stroke-opacity:1"
     id="rect4519"
     width="1399.8896"
     height="618.55591"
     x="-18"
     y="251"
     inkscape:export-xdpi="89"
     inkscape:export-ydpi="89" /><style
     id="style925"
     type="text/css">
	.st0{fill:none;}
	.st1{fill:#292933;}
</style><g
     id="g939"
     transform="matrix(0.84542683,0,0,0.84542683,447.76159,300.73192)"><rect
       height="600"
       width="600"
       class="st0"
       y="7"
       x="-23"
       id="Background"
       style="fill:none" /><path
       d="m 570.6,368.9 -57,-248.3 C 510.4,107 498,93.4 484.4,89.5 L 223.9,9.1 c -3.2,-1.3 -7.1,-1.3 -11,-1.3 -11,0 -22.7,4.5 -30.5,11 L -4.3,192.6 c -10.4,9.1 -15.6,27.2 -12.3,40.2 l 60.9,265.8 c 3.2,13.6 15.6,27.2 29.2,31.1 l 243.7,75.2 c 3.2,1.3 7.1,1.3 11,1.3 11,0 22.7,-4.5 30.5,-11 L 558.3,409.8 c 10.4,-9.8 15.5,-27.3 12.3,-40.9 z M 251.1,68.1 430,123.2 c 7.1,1.9 7.1,5.2 0,7.1 l -94,21.4 c -7.1,1.9 -16.9,-1.3 -22,-6.5 L 248.5,74.5 c -5.9,-5.7 -4.6,-8.3 2.6,-6.4 z M 362.6,389 c 1.9,7.1 -2.6,11 -9.7,9.1 L 159.8,338.5 c -7.1,-1.9 -8.4,-7.8 -3.2,-13 L 304.4,188.1 c 5.2,-5.2 11,-3.2 13,3.9 z M 44.3,214 201.2,68.1 c 5.2,-5.2 13.6,-4.5 18.8,0.6 l 78.4,84.9 c 5.2,5.2 4.5,13.6 -0.6,18.8 L 140.9,318.3 c -5.2,5.2 -13.6,4.5 -18.8,-0.6 L 43.7,232.8 C 38.5,226.9 39.1,218.5 44.3,214 Z M 82.6,445.4 41.1,263.2 c -1.9,-7.1 1.3,-8.4 5.8,-3.2 l 65.5,70.7 c 5.2,5.2 7.1,15.6 5.2,22.7 l -28.5,92 c -2,7.1 -5.2,7.1 -6.5,0 z M 312,551.7 107.2,488.8 c -7.1,-1.9 -11,-9.7 -9.1,-16.9 l 34.4,-110.2 c 1.9,-7.1 9.7,-11 16.9,-9.1 l 204.8,62.9 c 7.1,1.9 11,9.7 9.1,16.9 l -34.4,110.2 c -2.6,7.2 -9.8,11 -16.9,9.1 z M 493.5,402.6 356.7,529.7 c -5.2,5.2 -7.8,3.2 -5.8,-3.9 l 28.5,-92 c 1.9,-7.1 9.7,-14.3 16.9,-15.6 l 94,-21.4 c 7.1,-2 8.4,1.3 3.2,5.8 z m 14.9,-27.2 -112.8,25.9 c -7.1,1.9 -14.3,-2.6 -16.2,-9.7 l -48,-208.7 c -1.9,-7.1 2.6,-14.3 9.7,-16.2 l 112.8,-25.9 c 7.1,-1.9 14.3,2.6 16.2,9.7 l 48,208.7 c 2,7.8 -2.6,14.9 -9.7,16.2 z"
       class="st1"
       id="Cuboctahedron"
       inkscape:connector-curvature="0"
       style="fill:#292933" /></g></svg>