<?xml version="1.0" encoding="UTF-8" standalone="no"?>
<!-- Generator: Adobe Illustrator 13.0.0, SVG Export Plug-In . SVG Version: 6.00 Build 14576)  -->

<svg
   xmlns:dc="http://purl.org/dc/elements/1.1/"
   xmlns:cc="http://creativecommons.org/ns#"
   xmlns:rdf="http://www.w3.org/1999/02/22-rdf-syntax-ns#"
   xmlns:svg="http://www.w3.org/2000/svg"
   xmlns="http://www.w3.org/2000/svg"
   xmlns:xlink="http://www.w3.org/1999/xlink"
   xmlns:sodipodi="http://sodipodi.sourceforge.net/DTD/sodipodi-0.dtd"
   xmlns:inkscape="http://www.inkscape.org/namespaces/inkscape"
   version="1.0"
   x="0px"
   y="0px"
   width="1330.8213"
   height="588.03729"
   viewBox="0 0 1330.8226 657.88494"
   enable-background="new 0 0 598.486 671.089"
   id="svg100"
   sodipodi:docname="oauth_logo.svg"
   inkscape:version="0.92.2 (5c3e80d, 2017-08-06)"
   inkscape:export-filename="/home/moritz/Dokumente/veleda.io/veleda-website/Twenty-Jekyll-Theme/images/oauth_logo.png"
   inkscape:export-xdpi="89"
   inkscape:export-ydpi="89">
  <metadata
     id="metadata106">
    <rdf:RDF>
      <cc:Work
         rdf:about="">
        <dc:format>image/svg+xml</dc:format>
        <dc:type
           rdf:resource="http://purl.org/dc/dcmitype/StillImage" />
        <dc:title></dc:title>
      </cc:Work>
    </rdf:RDF>
  </metadata>
  <defs
     id="defs104">
    <linearGradient
       inkscape:collect="always"
       id="linearGradient930">
      <stop
         style="stop-color:#ffffff;stop-opacity:1"
         offset="0"
         id="stop926" />
      <stop
         style="stop-color:#e4e4e4;stop-opacity:1"
         offset="1"
         id="stop928" />
    </linearGradient>
    <radialGradient
       inkscape:collect="always"
       xlink:href="#linearGradient930"
       id="radialGradient932"
       cx="299.24271"
       cy="335.54477"
       fx="299.24271"
       fy="335.54477"
       r="744.44879"
       gradientTransform="rotate(90,485.62816,515.32794)"
       gradientUnits="userSpaceOnUse" />
  </defs>
  <sodipodi:namedview
     pagecolor="#ffffff"
     bordercolor="#666666"
     borderopacity="1"
     objecttolerance="10"
     gridtolerance="10"
     guidetolerance="10"
     inkscape:pageopacity="0"
     inkscape:pageshadow="2"
     inkscape:window-width="1853"
     inkscape:window-height="1025"
     id="namedview102"
     showgrid="false"
     inkscape:snap-bbox="true"
     inkscape:bbox-paths="true"
     inkscape:bbox-nodes="true"
     inkscape:snap-bbox-edge-midpoints="true"
     fit-margin-top="0"
     fit-margin-left="0"
     fit-margin-right="0"
     fit-margin-bottom="0"
     inkscape:zoom="0.78687719"
     inkscape:cx="746.50372"
     inkscape:cy="127.21416"
     inkscape:window-x="67"
     inkscape:window-y="27"
     inkscape:window-maximized="1"
     inkscape:current-layer="svg100" />
  <rect
     style="fill:url(#radialGradient932);fill-opacity:1;fill-rule:nonzero;stroke:none;stroke-width:31.47774887;stroke-miterlimit:4;stroke-dasharray:none;stroke-dashoffset:0;stroke-opacity:1"
     id="rect924"
     width="1488.8976"
     height="657.88495"
     x="-79.037476"
     y="-8.8817842e-16" />
  <g
     transform="translate(366.16861,29.022717)"
     id="g98">
    <path
       d="M 277.7249,0.87048682 C 410.2899,-8.3215132 498.1879,56.550487 548.4459,135.58949 c 25.2,39.63 49.925,99.82 50.039,161.663 0.122,67.194 -21.646,125.383 -50.039,168.078 -29.182,43.883 -66.926,80.128 -114.19,103.927 -79.006,39.783 -189.42,40.871 -261.741,2.566 -80.542003,-42.658 -142.468003,-103.545 -165.5120033,-209.136 -9.222,-42.256 -10.282,-96.855 2.566,-143.7 3.0150003,-10.989 8.4940003,-22.554 12.8310003,-33.359 20.842,-51.924 56.317,-97.076003 100.077003,-128.305003 17.584,-12.548 38.916,-25.028 57.737,-33.359 23.418,-10.365 62.846,-20.6910002 97.511,-23.09400018 z"
       id="path2"
       inkscape:connector-curvature="0"
       style="fill:#ffffff" />
    <path
       d="m 529.1839,304.72449 c 0,125.288 -101.566,226.847 -226.852,226.847 -125.286,0 -226.850003,-101.559 -226.850003,-226.847 0,-125.285 101.564003,-226.852003 226.850003,-226.852003 125.285,0 226.852,101.567003 226.852,226.852003 z"
       id="path4"
       inkscape:connector-curvature="0"
       style="fill:#000000" />
    <path
       d="M 277.7249,0.87048682 C 410.2899,-8.3215132 498.1879,56.550487 548.4459,135.58949 c 25.2,39.63 49.925,99.82 50.039,161.663 0.122,67.194 -21.646,125.383 -50.039,168.078 -29.182,43.883 -66.926,80.128 -114.19,103.927 -79.006,39.783 -189.42,40.871 -261.741,2.566 -80.542003,-42.658 -142.468003,-103.545 -165.5120033,-209.136 -9.222,-42.256 -10.282,-96.855 2.566,-143.7 3.0150003,-10.989 8.4940003,-22.554 12.8310003,-33.359 20.842,-51.924 56.317,-97.076003 100.077003,-128.305003 17.584,-12.548 38.916,-25.028 57.737,-33.359 23.418,-10.365 62.846,-20.6910002 97.511,-23.09400018 z M 232.8179,22.682487 c -49.239,12.766 -85.342,35.637 -116.756,60.303 -45.299003,35.568003 -74.177003,85.203003 -91.096003,144.983003 -18.8230003,66.508 -6.732,146.99 19.246,197.588 26.939,52.472 63.110003,93.203 114.190003,121.889 49.695,27.908 119.591,45.828 192.457,32.076 64.74,-12.218 113.909,-40.421 153.965,-82.115 53.592,-55.785 96.665,-158.534 68.002,-266.872 -7.662,-28.955 -17.679,-59.133 -33.36,-84.681 -8.472,-13.802 -20.904,-27.38 -33.359,-41.057 -47.006,-51.621003 -122.979,-96.1040032 -220.684,-89.813003 -18.594,1.197 -34.935,3.117 -52.605,7.699 z"
       id="path6"
       inkscape:connector-curvature="0"
       style="fill:#000000" />
    <g
       style="fill:none;stroke:#ffffff;stroke-width:2"
       id="hashpattern">
      <g
         id="g36">
        <line
           y2="314.65799"
           x2="578.18799"
           y1="576.78998"
           x1="316.04999"
           id="line8" />
        <line
           y2="292.754"
           x2="556.41498"
           y1="556.03003"
           x1="293.134"
           id="line10" />
        <line
           y2="270.85101"
           x2="534.64301"
           y1="535.27301"
           x1="270.21701"
           id="line12" />
        <line
           y2="248.948"
           x2="512.87"
           y1="514.513"
           x1="247.3"
           id="line14" />
        <line
           y2="227.04401"
           x2="491.09799"
           y1="493.754"
           x1="224.384"
           id="line16" />
        <line
           y2="205.14101"
           x2="469.32401"
           y1="473"
           x1="201.467"
           id="line18" />
        <line
           y2="183.23801"
           x2="447.552"
           y1="452.23599"
           x1="178.55"
           id="line20" />
        <line
           y2="161.334"
           x2="425.77802"
           y1="431.47699"
           x1="155.633"
           id="line22" />
        <line
           y2="139.431"
           x2="404"
           y1="410.71799"
           x1="132.716"
           id="line24" />
        <line
           y2="117.528"
           x2="382.233"
           y1="389.95801"
           x1="109.8"
           id="line26" />
        <line
           y2="95.625"
           x2="360.45999"
           y1="369.20001"
           x1="86.883003"
           id="line28" />
        <line
           y2="73.721001"
           x2="338.68799"
           y1="348.44101"
           x1="63.966"
           id="line30" />
        <line
           y2="51.818001"
           x2="316.91501"
           y1="327.681"
           x1="41.049"
           id="line32" />
        <line
           y2="29.915001"
           x2="295.142"
           y1="306.922"
           x1="18.132"
           id="line34" />
      </g>
      <g
         id="g66">
        <line
           y2="576.96002"
           x2="285.41901"
           y1="309.57199"
           x1="18.042999"
           id="line38" />
        <line
           y2="555.48798"
           x2="307.62201"
           y1="287.57901"
           x1="39.726002"
           id="line40" />
        <line
           y2="534.01398"
           x2="329.82501"
           y1="265.586"
           x1="61.409"
           id="line42" />
        <line
           y2="512.54199"
           x2="352.02899"
           y1="243.593"
           x1="83.092003"
           id="line44" />
        <line
           y2="491.06799"
           x2="374.23099"
           y1="221.60001"
           x1="104.774"
           id="line46" />
        <line
           y2="469.595"
           x2="396.436"
           y1="199.60699"
           x1="126.457"
           id="line48" />
        <line
           y2="448.12201"
           x2="418.63901"
           y1="177.614"
           x1="148.14"
           id="line50" />
        <line
           y2="426.64801"
           x2="440.84201"
           y1="155.621"
           x1="169.82201"
           id="line52" />
        <line
           y2="405.17499"
           x2="463.04599"
           y1="133.62801"
           x1="191.505"
           id="line54" />
        <line
           y2="383.70001"
           x2="485.24799"
           y1="111.635"
           x1="213.188"
           id="line56" />
        <line
           y2="362.229"
           x2="507.452"
           y1="89.641998"
           x1="234.871"
           id="line58" />
        <line
           y2="340.755"
           x2="529.65503"
           y1="67.649002"
           x1="256.55301"
           id="line60" />
        <line
           y2="319.28299"
           x2="551.85797"
           y1="45.657001"
           x1="278.23599"
           id="line62" />
        <line
           y2="297.80899"
           x2="574.06201"
           y1="23.664"
           x1="299.92001"
           id="line64" />
      </g>
    </g>
    <path
       d="m 490.7099,106.07949 c -23.593,-23.593003 -52.599,-44.853003 -87.247,-57.737003 -35.914,-13.355 -76.54,-24.612 -124.455,-20.529 -76.326,6.506 -129.916,40.751 -170.645,80.832003 -28.528003,28.073 -49.987003,62.474 -64.152003,102.643 -20.798,58.981 -19.536,128.598 3.849,188.607 19.947,51.187 52.595003,92.473 98.794003,124.455 43.431,30.067 105.765,53.386 175.776,47.473 85.272,-7.202 147.664,-50.95 188.607,-101.36 10.476,-12.896 20.892,-27.473 26.943,-44.906 5.929,-12.561 8.831,-21.1 11.548,-25.661 11.372,-25.482 17.397,-52.368 19.245,-82.114 5.685,-91.492 -29.517,-162.956 -78.263,-211.703 z m -25.131,278.748 c -0.163,0.348 -0.309,0.672 -0.479,1.031 -4.23,12.105 -11.517,22.227 -18.841,31.183 -28.634,35.004 -72.263,65.382 -131.895,70.384 -48.961,4.104 -92.552,-12.087 -122.923,-32.965 -26.392,-18.143 -46.454,-40.601 -60.522,-67.591 -0.858,-1.624 -9.028,-20.447 -9.052,-21.275 -11.145,-34.569 -12.112,-90.155 -0.673,-123.512 7.634,-22.263 20.357,-46.351 37.208,-65.435 23.266,-26.351 46.549,-43.236 83.398,-55.171 16.825,-5.45 31.887,-10.997 52.604,-11.547 50.52,-1.345 101.965,21.338 129.587,46.189 25.384,22.837 54.314,67.322 61.587,109.058 7.485,42.957 -0.503,84.898 -19.999,119.651 z"
       id="path69"
       inkscape:connector-curvature="0" />
    <path
       d="m 377.768,426.033 c -12.44,0 -23.357,-7.878 -27.167,-19.604 L 336.745,364.211 H 267.43 l -12.874,41.833 C 250.67,417.998 239.67,426 227.166,426 c -3.002,0 -5.984,-0.475 -8.863,-1.409 -14.946,-4.487 -23.431,-20.574 -18.852,-35.84 l 58.506,-185.323 c 3.799,-11.789 14.983,-20.012 27.2,-20.012 h 31.11 c 12.286,0 23.469,8.083 27.194,19.657 l 61.529,185.254 c 4.92,15.146 -3.227,31.405 -18.151,36.263 -2.951,0.958 -6.002,1.443 -9.071,1.443 z"
       id="path71"
       inkscape:connector-curvature="0"
       style="fill:#ffffff;stroke:#000000;stroke-width:6" />
    <g
       id="OAUTH"
       style="fill:#ffffff">
      <g
         id="g83">
        <path
           d="m 148.001,124.354 -0.073,-0.099 c -7.296,-9.999 -5.155,-23.987 5.59,-31.829 10.745,-7.841 24.548,-5.64 31.844,4.358 l 0.073,0.099 c 7.296,9.999 5.155,23.988 -5.59,31.829 -10.745,7.841 -24.548,5.641 -31.844,-4.358 z m 27.657,-20.183 -0.073,-0.099 c -3.666,-5.024 -10.492,-6.752 -15.814,-2.868 -5.273,3.848 -5.683,10.703 -2.017,15.728 l 0.073,0.099 c 3.667,5.024 10.492,6.752 15.765,2.904 5.323,-3.884 5.733,-10.739 2.066,-15.764 z"
           id="path73"
           inkscape:connector-curvature="0" />
        <path
           d="m 218.344,58.817 10.965,-3.518 30.739,35.734 -12.197,3.913 -5.342,-6.37 -15.833,5.08 -0.58,8.271 -11.962,3.838 z m 18.04,21.958 -8.318,-10.202 -0.889,13.156 z"
           id="path75"
           inkscape:connector-curvature="0" />
        <path
           d="m 279.795,69.567 0.096,-24.203 12.132,0.048 -0.095,23.957 c -0.025,6.22 3.104,9.188 7.908,9.208 4.804,0.019 7.956,-2.801 7.979,-8.836 l 0.097,-24.264 12.132,0.048 -0.095,23.895 c -0.055,13.918 -8.023,19.984 -20.279,19.935 -12.255,-0.05 -19.928,-6.301 -19.875,-19.788 z"
           id="path77"
           inkscape:connector-curvature="0" />
        <path
           d="m 363.859,65.338 -12.368,-3.775 3.056,-10.013 36.163,11.037 -3.056,10.013 -12.368,-3.774 -9.527,31.216 -11.426,-3.487 z"
           id="path79"
           inkscape:connector-curvature="0" />
        <path
           d="m 423.012,76.559 9.946,6.619 -8.938,13.432 12.766,8.496 8.939,-13.433 9.946,6.619 -23.883,35.889 -9.947,-6.619 9.076,-13.638 -12.767,-8.496 -9.075,13.638 -9.946,-6.619 z"
           id="path81"
           inkscape:connector-curvature="0" />
      </g>
      <g
         id="g95">
        <path
           d="m 458.146,468.883 0.076,0.097 c 7.674,9.713 6.068,23.775 -4.37,32.021 -10.438,8.246 -24.316,6.574 -31.99,-3.139 l -0.076,-0.097 c -7.674,-9.714 -6.067,-23.775 4.37,-32.021 10.438,-8.245 24.316,-6.574 31.99,3.139 z m -26.869,21.227 0.076,0.097 c 3.856,4.881 10.743,6.347 15.914,2.262 5.122,-4.047 5.271,-10.913 1.414,-15.794 l -0.076,-0.097 c -3.855,-4.881 -10.743,-6.347 -15.865,-2.3 -5.171,4.085 -5.319,10.951 -1.463,15.832 z"
           id="path85"
           inkscape:connector-curvature="0" />
        <path
           d="m 390.707,537.182 -10.8,3.997 -32.282,-34.346 12.013,-4.447 5.618,6.13 15.594,-5.772 0.215,-8.288 11.782,-4.361 z m -18.989,-21.142 8.759,9.825 0.309,-13.182 z"
           id="path87"
           inkscape:connector-curvature="0" />
        <path
           d="m 328.888,528.985 1.067,24.179 -12.12,0.535 -1.057,-23.933 c -0.274,-6.214 -3.542,-9.028 -8.341,-8.816 -4.799,0.212 -7.812,3.181 -7.546,9.21 l 1.07,24.24 -12.12,0.535 -1.054,-23.871 c -0.614,-13.904 7.054,-20.346 19.297,-20.886 12.244,-0.541 20.209,5.333 20.804,18.807 z"
           id="path89"
           inkscape:connector-curvature="0" />
        <path
           d="m 244.671,536.891 12.487,3.371 -2.729,10.108 -36.511,-9.855 2.729,-10.109 12.487,3.371 8.507,-31.516 11.536,3.114 z"
           id="path91"
           inkscape:connector-curvature="0" />
        <path
           d="m 185.65,528.108 -10.249,-6.142 8.295,-13.841 -13.153,-7.884 -8.295,13.841 -10.248,-6.142 22.164,-36.979 10.248,6.143 -8.422,14.052 13.154,7.884 8.422,-14.052 10.248,6.143 z"
           id="path93"
           inkscape:connector-curvature="0" />
      </g>
    </g>
  </g>
</svg>
